<svg width="267" height="259" viewBox="0 0 267 259" fill="none" xmlns="http://www.w3.org/2000/svg">
<path d="M177.228 74.0014C178.962 75.99 180.261 76.8134 180.042 79.6325L181.772 79.8155C188.942 78.5612 192.225 79.1554 199.531 79.1649C203.42 79.17 208.358 77.9895 212.147 79.1548C214.209 79.7891 216.262 81.6095 218.07 82.7548C226.721 88.2346 234.332 94.0637 239.991 102.514C243.842 108.264 244.035 112.439 240.198 118.496C238.619 120.989 236.719 121.314 234.259 122.836C228.135 126.625 223.418 131.203 216.471 133.649C213.645 134.644 204.313 136.553 204.622 141.083C204.814 143.898 206.098 143.55 204.295 146.396C202.214 149.681 208.096 153.235 209.502 155.365C212.264 159.551 213.911 169.584 213.617 174.532C213.364 178.792 207.329 187.765 204.241 190.774C199.605 195.291 195.302 199.805 188.716 200.893C181.246 202.127 172.104 201.444 164.937 199.099C160.351 197.598 155.812 193.724 151.743 191.147L133.998 179.907C132.971 179.256 128.243 175.276 127.11 176.151C122.207 179.935 116.156 182.517 111.046 186.081C105.556 189.911 96.9228 192.816 90.3122 193.711C85.6963 194.336 78.9738 195.734 75.1048 192.535C71.0284 189.164 66.7984 185.942 62.4652 182.909C57.1119 179.161 54.2584 169.423 51.9705 163.5C48.8369 155.387 53.2235 148.889 57.3171 142.427L62.0787 134.909C64.1605 131.623 68.8194 128.263 69.4029 124.306C69.7301 122.086 65.9604 119.229 64.9915 117.359C64.0418 115.526 63.7506 113.743 62.0281 112.443C59.7336 110.712 57.7212 108.585 56.5806 105.853C55.3481 102.9 55.4008 99.1797 54.3813 96.0535C53.5192 93.4098 53.0481 91.1087 52.5409 88.4057C51.4076 82.3663 56.7658 76.2955 61.0255 72.612C65.6365 68.6248 69.0687 63.6287 74.9 60.9412C82.8572 57.2738 87.4082 60.3747 95.2673 61.4857C100.005 62.1554 104.966 65.9413 109.549 64.2019C113.393 62.7435 115.208 57.4952 118.528 55.3042C120.802 53.8034 123.28 53.2604 125.426 51.3687C127.917 49.1736 129.937 47.3368 133.38 46.8863C137.825 46.3046 143.09 49.8558 147.534 49.7242C153.181 49.5571 159.063 53.337 163.692 56.515C167.954 59.441 169.491 65.1045 173.58 68.2473C175.575 69.7804 175.673 72.2192 177.228 74.0014Z" fill="#45FFCA" stroke="#0ABB8D" stroke-width="10" stroke-linecap="round"/>
<path d="M124.875 77.5059C126.681 78.9199 125.121 83.6946 125.07 85.833" stroke="#0ABB8D" stroke-width="10" stroke-linecap="round"/>
<path d="M146.559 82.127C146.551 83.401 147.577 84.6458 146.954 85.8207C146.154 87.3271 145.583 88.642 145.04 90.2806" stroke="#0ABB8D" stroke-width="10" stroke-linecap="round"/>
</svg>
