<svg width="320" height="304" viewBox="0 0 320 304" fill="none" xmlns="http://www.w3.org/2000/svg">
<path d="M41.3876 65.2199C47.3797 63.34 54.1214 63.3824 60.3009 61.7994C61.9712 61.8532 63.8256 61.6592 65.3873 61.5256C67.5994 61.3363 70.6117 62.2204 72.6037 61.7597C73.9338 61.4521 75.2792 62.0444 76.5533 61.7873C79.1635 61.2605 82.5142 59.8843 85.1214 60.0491C90.6336 60.3977 96.4264 59.8039 101.951 59.5193C105.523 59.3353 108.786 58.7143 112.389 58.9187C116.333 59.1424 120.392 59.7116 124.239 58.8952C128.827 57.9219 133.222 57.942 137.778 56.5125L147.932 53.3266C153.629 51.5393 159.44 48.9122 165.411 48.4759C168.659 48.2387 171.974 47.4762 175.137 46.7265C181.223 45.2842 187.335 45.9673 193.446 45.9787C195.704 45.9829 198.084 47.3485 200.382 47.6732C202.13 47.9203 204.569 48.2011 206.177 48.9865C207.59 49.6763 208.634 50.692 209.978 51.4537C213.597 53.506 218.187 54.0761 221.484 56.4998C225.053 59.1247 228.528 65.7177 229.847 69.9212C231.203 74.2435 232.449 77.2236 231.146 81.6883C230.171 85.0284 229.838 86.6699 227.417 89.5436C224.547 92.9508 219.874 94.092 215.804 95.369C213.337 96.1427 210.63 97.5111 208.039 97.3125C207.119 97.242 204.958 97.8775 204.415 98.6605C202.928 100.808 207.012 103.418 208.301 104.092C211.601 105.816 216.914 106.34 220.615 106.667C225.769 107.124 230.811 108.293 236.029 108.693C249.239 109.705 263.185 110.314 274.832 117.525C277.442 119.141 280.388 119.804 282.828 121.702C284.115 122.704 285.348 123.76 286.639 124.764C290.044 127.414 290.597 132.333 291.829 136.261C293.222 140.702 293.619 145.698 291.989 150.004C290.189 154.758 284.958 158.769 281.191 161.907C275.765 166.428 267.916 168.986 261.611 172.061C256.815 174.401 251.579 175.983 246.488 177.58C241.905 179.018 237.717 178.304 232.988 178.965C228.668 179.569 226.079 179.698 222.35 177.694C220.748 176.833 215.941 174.077 213.972 175.889C212.823 176.946 217.152 181.584 217.625 182.484C219.401 185.865 221.447 188.498 222.603 192.182C224.121 197.02 225.972 201.868 227.154 206.799C227.964 210.182 228.17 213.55 229.108 216.953C230.035 220.317 228.67 224.309 228.471 227.709C228.113 233.826 228.319 240.141 226.87 246.157C225.967 249.905 225.171 255.205 221.101 256.482C215.776 258.153 209.121 259.17 203.488 259.334C201.036 259.405 198.339 258.995 195.988 258.309C194.198 257.787 193.582 256.517 192.126 255.756C188.507 253.866 187.581 250.377 184.88 247.578C182.811 245.434 181.247 242.775 179.14 240.723C177.177 238.812 174.723 237.4 172.842 235.451C165.772 228.126 157.541 221.664 150.794 214.078C149.087 212.158 147.26 211.103 145.049 209.898C142.88 208.716 141.377 206.768 139.34 205.497C135.429 203.055 131.08 200.426 126.791 198.808C122.436 197.164 118.765 194.724 115.287 198.476C113.464 200.442 114.171 204.797 113.346 207.319C112.207 210.799 111.442 214.469 110.354 217.969C109.146 221.852 104.749 223.317 101.256 224.412C97.4618 225.603 93.5244 225.572 89.7466 226.757C88.388 227.183 86.8559 228.062 85.4654 227.467C81.5726 225.8 75.8706 226.568 72.6668 223.46C65.7139 216.713 62.6188 207.135 59.8101 198.182C58.0151 192.461 56.8114 186.606 55.0298 180.928L48.4267 159.881C47.4055 156.626 45.0249 153.088 42.4381 150.887C40.4917 149.232 38.9595 146.161 37.0136 144.813C30.9144 140.589 25.2161 136.46 20.0441 131.101C15.7014 126.601 13.2335 120.384 11.3972 114.531C10.3045 111.049 10.0524 109.876 10.7991 106.345C11.5656 102.719 11.2515 97.7503 12.8063 94.3493C17.0265 85.1181 21.2195 78.4437 29.0679 71.9353C33.0452 68.637 36.5191 66.7474 41.3876 65.2199Z" fill="#FFB6D9"/>
<path d="M60.6908 61.6971C54.4059 63.3851 47.506 63.3003 41.3876 65.2199C36.5191 66.7474 33.0452 68.637 29.0679 71.9353C21.2195 78.4437 17.0265 85.1181 12.8063 94.3493C11.2515 97.7503 11.5656 102.719 10.7991 106.345C10.0524 109.876 10.3045 111.049 11.3972 114.531C13.2335 120.384 15.7014 126.601 20.0441 131.101C25.2161 136.46 30.9144 140.589 37.0136 144.813C38.9595 146.161 40.4917 149.232 42.4381 150.887C45.0249 153.088 47.4055 156.626 48.4267 159.881C50.6277 166.897 52.8288 173.912 55.0298 180.928C56.8114 186.606 58.0151 192.461 59.8101 198.182C62.6188 207.135 65.7139 216.713 72.6668 223.46C75.8706 226.568 81.5726 225.8 85.4654 227.467C86.8559 228.062 88.388 227.183 89.7466 226.757C93.5244 225.572 97.4618 225.603 101.256 224.413C104.749 223.317 109.146 221.852 110.354 217.969C111.442 214.469 112.207 210.799 113.346 207.319C114.171 204.797 113.464 200.442 115.287 198.476C118.765 194.724 122.436 197.164 126.791 198.808C131.08 200.426 135.429 203.055 139.34 205.497C141.377 206.768 142.88 208.716 145.049 209.898C147.26 211.103 149.087 212.158 150.794 214.078C157.541 221.664 165.772 228.126 172.842 235.451C174.723 237.4 177.177 238.812 179.14 240.723C181.247 242.775 182.811 245.434 184.88 247.578C187.581 250.377 188.507 253.866 192.126 255.756C193.582 256.517 194.198 257.787 195.988 258.309C198.339 258.995 201.036 259.405 203.488 259.334C209.121 259.17 215.776 258.153 221.101 256.482C225.171 255.205 225.967 249.905 226.87 246.157C228.319 240.141 228.113 233.826 228.471 227.709C228.67 224.309 230.035 220.317 229.108 216.953C228.17 213.55 227.964 210.182 227.154 206.799C225.972 201.868 224.121 197.02 222.603 192.182C221.447 188.498 219.401 185.865 217.625 182.484C217.152 181.584 212.823 176.946 213.972 175.889C215.941 174.077 220.748 176.833 222.35 177.694C226.079 179.698 228.668 179.569 232.988 178.965C237.717 178.304 241.905 179.018 246.488 177.58C251.579 175.983 256.815 174.401 261.611 172.061C267.916 168.986 275.765 166.428 281.191 161.907C284.958 158.769 290.189 154.758 291.989 150.004C293.619 145.698 293.222 140.702 291.829 136.261C290.597 132.333 290.044 127.414 286.639 124.764C285.348 123.76 284.115 122.704 282.828 121.702C280.388 119.804 277.442 119.141 274.832 117.525C263.185 110.314 249.239 109.705 236.029 108.693C230.811 108.293 225.769 107.124 220.615 106.667C216.914 106.34 211.601 105.816 208.301 104.092C207.012 103.418 202.928 100.808 204.415 98.6605C204.958 97.8775 207.119 97.242 208.039 97.3125C210.63 97.5111 213.337 96.1427 215.804 95.369C219.874 94.092 224.547 92.9508 227.417 89.5436C229.838 86.6699 230.171 85.0284 231.146 81.6883C232.449 77.2236 231.203 74.2435 229.847 69.9212C228.528 65.7177 225.053 59.1247 221.484 56.4998C218.187 54.0761 213.597 53.506 209.978 51.4537C208.634 50.692 207.59 49.6763 206.177 48.9865C204.569 48.2011 202.13 47.9203 200.382 47.6732C198.084 47.3485 195.704 45.9829 193.446 45.9787C187.335 45.9673 181.223 45.2842 175.137 46.7265C171.974 47.4762 168.659 48.2387 165.411 48.4759C159.44 48.9122 153.629 51.5393 147.932 53.3266C144.547 54.3886 141.162 55.4506 137.778 56.5126C133.222 57.942 128.827 57.9219 124.239 58.8952C120.392 59.7116 116.333 59.1424 112.389 58.9187C108.786 58.7143 105.523 59.3353 101.951 59.5193C96.4264 59.8039 90.6336 60.3977 85.1214 60.0491C82.5142 59.8843 79.1635 61.2605 76.5533 61.7873C75.2792 62.0444 73.9338 61.4521 72.6037 61.7597C70.6117 62.2204 67.5994 61.3363 65.3873 61.5256C63.3296 61.7016 60.7636 61.9826 58.7801 61.6632" stroke="#D67BFF" stroke-width="7.26305" stroke-linecap="round"/>
<path d="M41.2676 109.791C45.139 108.809 49.0516 110.238 52.7919 110.84" stroke="#D67BFF" stroke-width="7.26305" stroke-linecap="round"/>
<path d="M58.6777 80.541C60.1781 80.0703 62.9697 81.0078 64.4788 81.5198C65.4248 81.8407 66.4414 82.4991 67.3626 82.9473C68.4574 83.48 69.3915 83.0902 70.4436 83.8466" stroke="#D67BFF" stroke-width="7.26305" stroke-linecap="round"/>
<path d="M72.5435 108.372C72.4313 106.474 73.6357 104.291 74.1962 102.489C74.7339 100.76 75.0151 98.9842 75.5872 97.2581C76.6321 94.105 79.6968 91.4894 80.2204 88.2373" stroke="#D67BFF" stroke-width="7.26305" stroke-linecap="round"/>
<path d="M71.9586 109.491C73.55 109.162 75.4257 110.43 76.8516 110.962C78.3098 111.506 79.9338 110.958 81.2643 111.729C83.3998 112.965 92.0515 116.919 93.2827 112.7C94.3129 109.171 94.6474 104.9 96.8015 101.697C97.6014 100.508 97.8567 98.7733 98.9891 97.8491C100.085 96.9547 99.9285 95.4611 100.802 94.3777" stroke="#D67BFF" stroke-width="7.26305" stroke-linecap="round"/>
<path d="M57.9831 123.436C57.4434 123.736 57.4712 124.444 57.2733 124.867C57.0095 125.43 56.925 125.831 56.784 126.407C56.5305 127.444 56.1614 128.659 55.7107 129.672C55.26 130.684 54.9664 131.754 54.521 132.781C54.2875 133.32 55.1388 133.957 54.5726 134.402" stroke="#D67BFF" stroke-opacity="0.5" stroke-width="7.26305" stroke-linecap="round"/>
<path d="M78.1739 79.6938C78.9632 79.279 79.4092 77.7944 79.8835 77.104C80.4178 76.3265 80.836 75.5892 81.5047 74.9437C82.3299 74.1473 83.1108 73.317 83.9653 72.5424C84.6863 71.8888 85.5538 71.4857 86.2132 70.7435" stroke="#D67BFF" stroke-opacity="0.5" stroke-width="7.26305" stroke-linecap="round"/>
</svg>
