<svg width="172" height="160" viewBox="0 0 172 160" fill="none" xmlns="http://www.w3.org/2000/svg">
<path d="M134.102 16.2701C139.573 16.8485 142.713 15.3532 147.87 14.6283L161.083 21.4888C165.578 27.8727 167.691 38.7901 165.254 46.3219C162.288 55.4914 157.186 65.8779 147.004 67.5798C141.146 68.5588 135.998 69.7781 130.203 70.2345C128.523 70.3669 123.416 70.7253 123.194 72.2466C122.921 74.1087 117.942 84.4442 119.02 86.0878C120.917 88.9813 135.75 81.4898 138.618 81.793L147.084 82.6881C150.421 83.041 152.41 86.7195 153.984 89.4404C155.527 92.1061 153.741 98.2514 153.428 101.212C152.911 106.102 151.933 110.354 150.256 114.944C148.202 120.563 147.692 126.422 145.471 132.119C142.325 140.193 140.09 144.632 132.259 148.446C126.683 151.162 119.702 152.329 113.639 153.662C106.21 155.295 98.1544 153.401 90.6917 152.612L66.4842 150.053C56.6792 149.016 47.2217 147.308 37.5461 145.445C31.6602 144.311 26.611 143.05 21.1592 140.529C18.5655 139.329 15.2573 139.284 12.8393 137.842C2.97476 131.959 5.91667 119.499 6.89556 110.24C7.37796 105.678 7.62805 101.02 8.51863 96.5167C9.96654 89.1959 13.1872 82.436 14.4894 75.036C15.274 70.5778 15.9495 66.133 16.6766 61.6731C17.543 56.3591 20.7197 51.3561 22.0267 46.0634C23.7758 38.9802 34.436 32.3033 40.2176 28.6279C46.1076 24.8835 51.9799 20.7676 58.9041 19.1174C68.1862 16.9053 77.429 16.4006 86.6932 14.6561C97.259 12.6666 106.868 14.2644 117.599 15.2996C123.1 15.8302 128.578 15.6861 134.102 16.2701Z" fill="#FEFFAC" stroke="#EECD71" stroke-width="10" stroke-linecap="round"/>
<path d="M104.773 34.0781L104.612 35.6097" stroke="#EECD71" stroke-width="10" stroke-linecap="round"/>
<path d="M119.809 31.0215C120.505 31.1842 120.289 31.3235 120.493 31.8679" stroke="#EECD71" stroke-width="10" stroke-linecap="round"/>
</svg>
