<svg width="250" height="229" viewBox="0 0 250 229" fill="none" xmlns="http://www.w3.org/2000/svg">
<rect width="250" height="211" fill="white"/>
<mask id="mask0_919_1735" style="mask-type:alpha" maskUnits="userSpaceOnUse" x="0" y="0" width="250" height="212">
<rect y="0.00585938" width="250" height="211" fill="white"/>
</mask>
<g mask="url(#mask0_919_1735)">
<path d="M-1.63275 149.867H16.9407L24.8596 160.089C29.8269 154.258 32.6345 145.475 32.6345 133.885C32.6345 111.568 22.124 99.4738 5.9982 99.4738C-10.1276 99.4738 -20.7821 111.568 -20.7821 133.885C-20.7821 156.202 -10.1276 168.296 5.9982 168.296C8.08591 168.296 10.1016 168.08 12.0454 167.72L-1.63275 149.867ZM54.6635 133.885C54.6635 152.458 48.3284 166.785 38.1058 175.783L52.9357 194.645H32.6345L24.2837 184.134C18.6684 186.366 12.4773 187.446 5.9982 187.446C-21.79 187.446 -42.8111 167.72 -42.8111 133.885C-42.8111 99.9058 -21.79 80.3245 5.9982 80.3245C33.4984 80.3245 54.6635 99.9058 54.6635 133.885ZM134.86 81.7643H156.601V149.435C156.601 172.328 139.324 187.446 113.407 187.446C87.4909 187.446 70.3573 172.328 70.3573 149.435V81.7643H91.9543V147.707C91.9543 159.657 100.449 168.44 113.407 168.44C126.51 168.44 134.86 159.657 134.86 147.707V81.7643ZM195.764 81.7643V186.006H174.167V81.7643H195.764ZM212.034 186.006V173.048L264.299 99.6178H211.89V81.7643H291.367V94.7225L239.246 168.152H291.511V186.006H212.034Z" fill="#F0F0F0"/>
</g>
<path d="M199.523 104.914C202.942 104.914 204.784 103.785 207.923 103L216.536 106.376C219.731 110.027 221.75 116.636 220.737 121.449C219.503 127.309 217.028 134.061 210.848 135.778C207.292 136.765 204.191 137.855 200.639 138.516C199.61 138.707 196.477 139.262 196.439 140.217C196.393 141.385 193.991 148.097 194.764 149.043C196.126 150.707 204.802 145.108 206.594 145.108L211.884 145.108C213.97 145.108 215.439 147.252 216.59 148.83C217.717 150.376 217.015 154.291 217.015 156.141C217.015 159.196 216.688 161.887 215.952 164.833C215.05 168.44 215.117 172.093 214.117 175.759C212.7 180.954 211.61 183.843 207.019 186.712C203.751 188.754 199.514 189.931 195.854 191.151C191.371 192.646 186.269 192.002 181.606 192.002L166.48 192.002C160.353 192.002 154.397 191.564 148.296 191.045C144.585 190.729 141.383 190.28 137.849 189.078C136.168 188.506 134.121 188.694 132.532 187.961C126.052 184.97 127.056 177.078 127.056 171.293C127.056 168.442 126.906 165.547 127.163 162.707C127.579 158.088 129.127 153.701 129.449 149.043C129.642 146.237 129.769 143.446 129.927 140.642C130.115 137.302 131.752 134.003 132.213 130.647C132.831 126.156 138.983 121.333 142.315 118.684C145.71 115.986 149.07 113.059 153.241 111.586C158.832 109.613 164.511 108.697 170.122 107.014C176.521 105.094 182.563 105.454 189.262 105.393C192.695 105.361 196.071 104.914 199.523 104.914Z" fill="#FEFFAC" stroke="#EECD71" stroke-width="2" stroke-linecap="round"/>
<path d="M182.566 117.834L182.566 118.791" stroke="#EECD71" stroke-width="2" stroke-linecap="round"/>
<path d="M191.652 114.965C192.093 115.02 191.969 115.12 192.131 115.443" stroke="#EECD71" stroke-width="2" stroke-linecap="round"/>
<path d="M104.816 114.346C106.069 115.509 106.963 115.951 107.013 117.782L108.141 117.782C112.675 116.486 114.831 116.645 119.539 116.153C122.045 115.892 125.147 114.794 127.668 115.287C129.04 115.555 130.487 116.589 131.73 117.203C137.677 120.145 142.978 123.382 147.2 128.442C150.074 131.885 150.482 134.562 148.423 138.726C147.575 140.44 146.373 140.779 144.891 141.927C141.203 144.786 138.476 148.057 134.167 150.106C132.413 150.94 126.53 152.805 127.038 155.703C127.354 157.504 128.157 157.192 127.19 159.149C126.072 161.408 130.104 163.297 131.155 164.574C133.22 167.082 134.965 173.435 135.113 176.643C135.24 179.406 131.963 185.599 130.178 187.748C127.498 190.975 125.033 194.176 120.864 195.326C116.134 196.63 110.197 196.813 105.419 195.79C102.362 195.135 99.1736 192.948 96.3762 191.565L84.1763 185.531C83.4705 185.182 80.1524 182.939 79.4818 183.58C76.5809 186.353 72.8573 188.428 69.8078 191.073C66.5308 193.915 61.1662 196.375 56.9676 197.402C54.0359 198.119 49.7995 199.478 47.0886 197.68C44.2323 195.786 41.2871 193.998 38.2884 192.339C34.5837 190.289 32.0816 184.208 30.2039 180.547C27.632 175.534 30.0159 171.048 32.2133 166.605L34.7693 161.436C35.8868 159.177 38.6599 156.694 38.7663 154.105C38.8259 152.653 36.2022 151.068 35.4505 149.929C34.7137 148.813 34.4046 147.684 33.2062 146.964C31.6098 146.005 30.1682 144.771 29.2471 143.088C28.2518 141.27 28.0322 138.869 27.1624 136.924C26.4267 135.279 25.9664 133.829 25.4555 132.121C24.3138 128.307 27.3528 124.03 29.8466 121.367C32.546 118.483 34.4173 115.03 37.9915 112.901C42.869 109.996 46.0127 111.684 51.1524 111.865C54.2506 111.973 57.705 114.075 60.5401 112.642C62.9173 111.44 63.7291 107.935 65.7191 106.297C67.0822 105.175 68.6418 104.656 69.8961 103.291C71.3515 101.707 72.5279 100.386 74.7159 99.861C77.5403 99.1834 81.1746 101.113 84.0296 100.725C87.6562 100.233 91.7042 102.268 94.9034 104C97.8489 105.595 99.225 109.14 102.074 110.886C103.464 111.738 103.693 113.303 104.816 114.346Z" fill="#45FFCA" stroke="#2ADBAD" stroke-width="2" stroke-linecap="round"/>
<path d="M71.3516 120.168C72.6116 120.956 71.932 124.139 72.0443 125.52" stroke="#2ADBAD" stroke-width="2" stroke-linecap="round"/>
<path d="M85.6406 121.67C85.7225 122.491 86.4684 123.224 86.1468 124.023C85.7343 125.048 85.4555 125.934 85.2177 127.027" stroke="#2ADBAD" stroke-width="2" stroke-linecap="round"/>
<rect x="62" y="35" width="127" height="13" fill="#45FFCA"/>
<path d="M72.7891 41H67.3105V25.4453H72.8535C77.5371 25.4453 80.3945 28.3672 80.3945 33.2012C80.3945 38.0781 77.5371 41 72.7891 41ZM70.5332 38.2285H72.6602C75.625 38.2285 77.1719 36.6816 77.1719 33.2012C77.1719 29.7422 75.625 28.2168 72.6816 28.2168H70.5332V38.2285ZM84.4551 41H80.9746L86.3672 25.4453H90.5137L95.8848 41H92.4258L91.2656 37.4121H85.6367L84.4551 41ZM86.4531 34.8984H90.4492L88.4941 28.9473H88.3867L86.4531 34.8984ZM100.869 25.4453V41H97.6465V25.4453H100.869ZM103.49 41V25.4453H106.713V38.3359H113.416V41H103.49ZM112.621 25.4453H116.252L119.84 32.1484H119.99L123.557 25.4453H127.188L121.516 35.457V41H118.293V35.457L112.621 25.4453ZM139.777 35.6074H142.549L143.73 37.1328C144.472 36.2627 144.891 34.9521 144.891 33.2227C144.891 29.8926 143.322 28.0879 140.916 28.0879C138.51 28.0879 136.92 29.8926 136.92 33.2227C136.92 36.5527 138.51 38.3574 140.916 38.3574C141.228 38.3574 141.528 38.3252 141.818 38.2715L139.777 35.6074ZM148.178 33.2227C148.178 35.9941 147.232 38.1318 145.707 39.4746L147.92 42.2891H144.891L143.645 40.7207C142.807 41.0537 141.883 41.2148 140.916 41.2148C136.77 41.2148 133.633 38.2715 133.633 33.2227C133.633 28.1523 136.77 25.2305 140.916 25.2305C145.02 25.2305 148.178 28.1523 148.178 33.2227ZM160.145 25.4453H163.389V35.543C163.389 38.959 160.811 41.2148 156.943 41.2148C153.076 41.2148 150.52 38.959 150.52 35.543V25.4453H153.742V35.2852C153.742 37.0684 155.01 38.3789 156.943 38.3789C158.898 38.3789 160.145 37.0684 160.145 35.2852V25.4453ZM169.232 25.4453V41H166.01V25.4453H169.232ZM171.66 41V39.0664L179.459 28.1094H171.639V25.4453H183.498V27.3789L175.721 38.3359H183.52V41H171.66Z" fill="#333333"/>
<path d="M94.2558 73.3605C94.2558 73.3605 88.8895 72.907 87 72V79.2558C87 79.2558 92.8198 80.843 94.2558 80.3895V73.3605Z" fill="#FEFFAC"/>
<path d="M44.4942 74.6686C44.4942 74.6686 42.3779 70.814 42 69H46.9884C47.5326 70.6326 48.7268 72.25 49.2558 72.8547C49.2558 72.8547 45.6279 74.8954 44.4942 74.6686Z" fill="#45FFCA"/>
<path d="M223.494 53.6686C223.494 53.6686 221.378 49.814 221 48H225.988C226.533 49.6326 227.727 51.25 228.256 51.8547C228.256 51.8547 224.628 53.8954 223.494 53.6686Z" fill="#45FFCA"/>
<path d="M28.8023 97C28.8023 97 23.7384 99.4186 22 99.4942V104.936C22 104.936 29.2558 103.727 30.6163 102.442L28.8023 97Z" fill="#FFB6D9"/>
<path d="M26.7616 21C26.7616 21 23.1337 23.6454 22 23.9477C23.0884 25.5802 23.9651 27.0465 24.2674 27.5756C24.2674 27.5756 28.8023 25.3081 29.9361 23.9477L26.7616 21Z" fill="#2ADBAD"/>
<path d="M148.014 88.4031C148.009 88.4046 148.005 88.4059 148 88.407C148.005 88.4057 148.009 88.4044 148.014 88.4031C148.636 88.2072 150.721 85.0059 150.721 85.0059C152.61 85.3838 156.616 88.407 156.616 88.407C156.012 90.221 152.762 92.7152 152.762 92.7152C152.234 90.98 150.546 87.6934 148.014 88.4031Z" fill="#FEFFAC"/>
<path d="M209.31 84C209.31 84 205.77 86.4 204 87.06C204.759 90.516 208.236 92.46 209.879 93L215 89.22C215 89.22 210.322 85.8 209.31 84Z" fill="#FFB6D9"/>
<path d="M185 69.3954V62.3663C189.172 63.4547 192.331 61.9128 193.39 61.0059V67.8082C193.39 67.8082 186.814 69.5466 185 69.3954Z" fill="#2ADBAD"/>
<path d="M203.855 20C203.855 20 200.983 23.1744 200 23.4012L203.855 27.0291C203.855 27.0291 207.785 23.3256 208.39 21.5872L203.855 20Z" fill="#FFB6D9"/>
</svg>
