<svg width="199" height="222" viewBox="0 0 199 222" fill="none" xmlns="http://www.w3.org/2000/svg">
<path d="M26.0214 73.3081C29.7887 72.3192 33.9641 72.5432 37.8389 71.7438C38.8721 71.8261 40.0266 71.7603 40.998 71.7233C42.374 71.671 44.2142 72.307 45.4619 72.0801C46.2949 71.9285 47.1111 72.3349 47.9079 72.213C49.5405 71.9632 51.6567 71.2089 53.267 71.3875C56.6717 71.7651 60.2779 71.5672 63.7085 71.5529C65.9274 71.5437 67.9671 71.2547 70.1927 71.487C72.6297 71.7413 75.1275 72.2129 77.5352 71.82C80.4058 71.3516 83.1278 71.493 85.9924 70.741L92.3769 69.0651C95.9584 68.125 99.6356 66.6679 103.348 66.5728C105.367 66.521 107.443 66.1459 109.424 65.7742C113.237 65.0592 117.003 65.6617 120.789 65.848C122.188 65.9168 123.622 66.8327 125.036 67.1012C126.112 67.3056 127.615 67.5511 128.588 68.0848C129.443 68.5536 130.06 69.2135 130.87 69.7248C133.052 71.1023 135.879 71.5902 137.85 73.1884C139.985 74.9193 141.944 79.1057 142.638 81.7486C143.351 84.4661 144.036 86.3489 143.097 89.0766C142.395 91.1173 142.141 92.1245 140.557 93.8338C138.679 95.8605 135.75 96.4304 133.191 97.1021C131.641 97.5091 129.923 98.2774 128.324 98.0784C127.756 98.0077 126.398 98.338 126.039 98.8072C125.055 100.094 127.508 101.831 128.287 102.286C130.281 103.451 133.557 103.931 135.841 104.243C139.02 104.677 142.11 105.549 145.331 105.95C153.485 106.964 162.107 107.75 169.111 112.56C170.68 113.638 172.486 114.134 173.942 115.382C174.71 116.041 175.443 116.731 176.213 117.391C178.245 119.132 178.443 122.196 179.091 124.665C179.824 127.458 179.923 130.564 178.787 133.184C177.532 136.077 174.174 138.408 171.748 140.242C168.254 142.883 163.317 144.238 159.32 145.958C156.281 147.267 152.99 148.093 149.789 148.934C146.908 149.69 144.335 149.125 141.386 149.396C138.691 149.643 137.084 149.647 134.832 148.296C133.865 147.715 130.968 145.867 129.695 146.932C128.952 147.553 131.498 150.554 131.764 151.125C132.766 153.271 133.956 154.963 134.564 157.279C135.362 160.321 136.367 163.379 136.954 166.468C137.357 168.588 137.386 170.68 137.867 172.816C138.343 174.927 137.381 177.36 137.157 179.461C136.756 183.24 136.699 187.158 135.624 190.843C134.955 193.138 134.306 196.399 131.748 197.07C128.399 197.949 124.247 198.384 120.752 198.321C119.231 198.293 117.572 197.96 116.136 197.466C115.042 197.089 114.698 196.285 113.818 195.771C111.632 194.493 111.16 192.305 109.569 190.492C108.35 189.103 107.459 187.409 106.214 186.077C105.054 184.835 103.575 183.888 102.467 182.626C98.3014 177.88 93.3918 173.636 89.4347 168.738C88.4331 167.498 87.3322 166.791 85.9983 165.98C84.6891 165.184 83.815 163.933 82.5905 163.086C80.2391 161.458 77.6218 159.702 75.0122 158.573C72.3623 157.428 70.1598 155.808 67.8946 158.031C66.7079 159.195 67.0182 161.914 66.4329 163.452C65.6253 165.575 65.0438 167.826 64.2668 169.962C63.4047 172.333 60.6379 173.111 58.4417 173.687C56.0561 174.314 53.6177 174.179 51.2425 174.802C50.3883 175.026 49.4134 175.526 48.5694 175.116C46.2067 173.969 42.6516 174.278 40.758 172.258C36.6484 167.875 35.0118 161.85 33.5344 156.222C32.5901 152.624 32.0162 148.962 31.079 145.392L27.6056 132.159C27.0684 130.113 25.6974 127.851 24.1593 126.412C23.0021 125.329 22.1429 123.381 20.9769 122.489C17.3222 119.693 13.9132 116.968 10.8662 113.497C8.30775 110.582 6.96124 106.658 5.99526 102.978C5.42048 100.788 5.29869 100.054 5.86486 97.8884C6.44607 95.665 6.39725 92.5774 7.46023 90.516C10.3455 84.9208 13.1389 80.9089 18.192 77.1071C20.7529 75.1804 22.9604 74.1116 26.0214 73.3081Z" fill="#F5F6FA"/>
<path d="M31.0214 34.3081C34.7887 33.3192 38.9641 33.5432 42.8389 32.7438C43.8721 32.8261 45.0266 32.7603 45.998 32.7233C47.374 32.671 49.2142 33.307 50.4619 33.0801C51.2949 32.9285 52.1111 33.3349 52.9079 33.213C54.5405 32.9632 56.6567 32.2089 58.267 32.3875C61.6717 32.7651 65.2779 32.5672 68.7085 32.5529C70.9274 32.5437 72.9671 32.2547 75.1927 32.487C77.6297 32.7413 80.1275 33.2129 82.5352 32.82C85.4058 32.3516 88.1278 32.493 90.9924 31.741L97.3769 30.0651C100.958 29.125 104.636 27.6679 108.348 27.5728C110.367 27.521 112.443 27.1459 114.424 26.7742C118.237 26.0592 122.003 26.6617 125.789 26.848C127.188 26.9168 128.622 27.8327 130.036 28.1012C131.112 28.3056 132.615 28.5511 133.588 29.0848C134.443 29.5536 135.06 30.2135 135.87 30.7248C138.052 32.1023 140.879 32.5902 142.85 34.1884C144.985 35.9193 146.944 40.1057 147.638 42.7486C148.351 45.4661 149.036 47.3489 148.097 50.0766C147.395 52.1173 147.141 53.1245 145.557 54.8338C143.679 56.8605 140.75 57.4304 138.191 58.1021C136.641 58.5091 134.923 59.2774 133.324 59.0784C132.756 59.0077 131.398 59.338 131.039 59.8072C130.055 61.0937 132.508 62.8309 133.287 63.2859C135.281 64.4508 138.557 64.9312 140.841 65.2429C144.02 65.6767 147.11 66.549 150.331 66.9498C158.485 67.9644 167.107 68.7504 174.111 73.5599C175.68 74.6376 177.486 75.1343 178.942 76.382C179.71 77.0405 180.443 77.731 181.213 78.3908C183.245 80.132 183.443 83.1956 184.091 85.6652C184.824 88.4578 184.923 91.5645 183.787 94.1841C182.532 97.0768 179.174 99.4079 176.748 101.242C173.254 103.883 168.317 105.238 164.32 106.958C161.281 108.267 157.99 109.093 154.789 109.934C151.908 110.69 149.335 110.125 146.386 110.396C143.691 110.643 142.084 110.647 139.832 109.296C138.865 108.715 135.968 106.867 134.695 107.932C133.952 108.553 136.498 111.554 136.764 112.125C137.766 114.271 138.956 115.963 139.564 118.279C140.362 121.321 141.367 124.379 141.954 127.468C142.357 129.588 142.386 131.68 142.867 133.816C143.343 135.927 142.381 138.36 142.157 140.461C141.756 144.24 141.699 148.158 140.624 151.843C139.955 154.138 139.306 157.399 136.748 158.07C133.399 158.949 129.247 159.384 125.752 159.321C124.231 159.293 122.572 158.96 121.136 158.466C120.042 158.089 119.698 157.285 118.818 156.771C116.632 155.493 116.16 153.305 114.569 151.492C113.35 150.103 112.459 148.409 111.214 147.077C110.054 145.835 108.575 144.888 107.467 143.626C103.301 138.88 98.3918 134.636 94.4347 129.738C93.4331 128.498 92.3322 127.791 90.9983 126.98C89.6891 126.184 88.815 124.933 87.5905 124.086C85.2391 122.458 82.6218 120.702 80.0122 119.573C77.3623 118.428 75.1598 116.808 72.8946 119.031C71.7079 120.195 72.0182 122.914 71.4329 124.452C70.6253 126.575 70.0438 128.826 69.2668 130.962C68.4047 133.333 65.6379 134.111 63.4417 134.687C61.0561 135.314 58.6177 135.179 56.2425 135.802C55.3883 136.026 54.4134 136.526 53.5694 136.116C51.2067 134.969 47.6516 135.278 45.758 133.258C41.6484 128.875 40.0118 122.85 38.5344 117.222C37.5901 113.624 37.0162 109.962 36.079 106.392L32.6056 93.1593C32.0684 91.1129 30.6974 88.8508 29.1593 87.4117C28.0021 86.329 27.1429 84.3814 25.9769 83.4894C22.3222 80.6935 18.9132 77.9682 15.8662 74.4967C13.3077 71.5817 11.9612 67.6578 10.9953 63.9779C10.4205 61.7882 10.2987 61.0543 10.8649 58.8884C11.4461 56.665 11.3973 53.5774 12.4602 51.516C15.3455 45.9208 18.1389 41.9089 23.192 38.1071C25.7529 36.1804 27.9604 35.1116 31.0214 34.3081Z" fill="#F5F6FA"/>
<path d="M43.0834 32.6918C39.1403 33.5532 34.8681 33.2983 31.0214 34.3081C27.9604 35.1116 25.7529 36.1804 23.192 38.1071C18.1389 41.9089 15.3455 45.9208 12.4602 51.516C11.3973 53.5774 11.4461 56.665 10.8649 58.8884C10.2987 61.0543 10.4205 61.7882 10.9953 63.9779C11.9612 67.6578 13.3077 71.5817 15.8662 74.4967C18.9132 77.9682 22.3222 80.6935 25.9769 83.4894C27.1429 84.3814 28.0021 86.329 29.1593 87.4117C30.6974 88.8508 32.0684 91.1129 32.6056 93.1593C33.7634 97.57 34.9212 101.981 36.079 106.392C37.0162 109.962 37.5901 113.624 38.5344 117.222C40.0118 122.85 41.6484 128.875 45.758 133.258C47.6516 135.278 51.2066 134.969 53.5694 136.116C54.4134 136.526 55.3883 136.026 56.2425 135.802C58.6177 135.179 61.0561 135.314 63.4417 134.687C65.6379 134.111 68.4047 133.333 69.2668 130.962C70.0438 128.826 70.6253 126.575 71.4329 124.452C72.0182 122.914 71.7079 120.195 72.8946 119.031C75.1598 116.808 77.3623 118.428 80.0122 119.573C82.6218 120.702 85.2391 122.458 87.5905 124.086C88.815 124.933 89.6891 126.184 90.9983 126.98C92.3322 127.791 93.4331 128.498 94.4347 129.738C98.3918 134.636 103.301 138.88 107.467 143.626C108.575 144.888 110.054 145.835 111.214 147.077C112.459 148.409 113.35 150.103 114.569 151.492C116.16 153.305 116.632 155.493 118.818 156.771C119.698 157.285 120.042 158.089 121.136 158.466C122.572 158.96 124.231 159.293 125.752 159.321C129.247 159.384 133.399 158.949 136.748 158.07C139.306 157.399 139.955 154.138 140.624 151.843C141.699 148.158 141.756 144.24 142.157 140.461C142.381 138.36 143.343 135.927 142.867 133.816C142.386 131.68 142.357 129.588 141.954 127.468C141.367 124.379 140.362 121.321 139.564 118.279C138.956 115.963 137.766 114.271 136.764 112.125C136.498 111.554 133.952 108.553 134.695 107.932C135.968 106.867 138.865 108.715 139.832 109.296C142.084 110.647 143.691 110.643 146.386 110.396C149.335 110.125 151.908 110.69 154.789 109.934C157.99 109.093 161.281 108.267 164.32 106.958C168.317 105.238 173.254 103.883 176.748 101.242C179.174 99.4079 182.532 97.0768 183.787 94.1841C184.923 91.5645 184.824 88.4578 184.091 85.6652C183.443 83.1957 183.245 80.132 181.213 78.3908C180.443 77.731 179.71 77.0405 178.942 76.382C177.486 75.1343 175.68 74.6376 174.111 73.5599C167.107 68.7504 158.485 67.9644 150.331 66.9498C147.11 66.549 144.02 65.6767 140.841 65.2429C138.557 64.9312 135.281 64.4508 133.287 63.2859C132.508 62.8309 130.055 61.0937 131.039 59.8072C131.398 59.338 132.756 59.0077 133.324 59.0784C134.923 59.2774 136.641 58.5091 138.191 58.1021C140.75 57.4304 143.679 56.8605 145.557 54.8338C147.141 53.1245 147.395 52.1173 148.097 50.0766C149.036 47.3489 148.351 45.4661 147.638 42.7486C146.944 40.1057 144.985 35.9193 142.85 34.1884C140.879 32.5902 138.052 32.1023 135.87 30.7248C135.06 30.2135 134.443 29.5536 133.588 29.0848C132.615 28.5511 131.112 28.3056 130.036 28.1012C128.622 27.8327 127.188 26.9168 125.789 26.848C122.003 26.6617 118.237 26.0592 114.424 26.7742C112.443 27.1459 110.367 27.521 108.348 27.5728C104.636 27.6679 100.958 29.125 97.3769 30.0651C95.2487 30.6237 93.1205 31.1824 90.9924 31.741C88.1279 32.493 85.4058 32.3516 82.5352 32.82C80.1275 33.2129 77.6297 32.7413 75.1927 32.487C72.9671 32.2547 70.9274 32.5437 68.7085 32.5529C65.2779 32.5672 61.6717 32.7651 58.267 32.3875C56.6567 32.2089 54.5405 32.9632 52.9079 33.213C52.1111 33.3349 51.2949 32.9285 50.4619 33.0801C49.2142 33.307 47.374 32.671 45.998 32.7233C44.7181 32.772 43.1202 32.8708 41.9007 32.6148" stroke="#CCCCCC" stroke-width="1.58242" stroke-linecap="round"/>
<path d="M29.6406 61.916C32.0679 61.4209 34.4499 62.4211 36.7494 62.9039" stroke="#CCCCCC" stroke-width="1.58242" stroke-linecap="round"/>
<path d="M41.2871 44.2988C42.2304 44.0512 43.9324 44.7139 44.8523 45.0753C45.4289 45.3019 46.0394 45.7396 46.597 46.0443C47.2596 46.4064 47.8497 46.1924 48.4793 46.6918" stroke="#CCCCCC" stroke-width="1.58242" stroke-linecap="round"/>
<path d="M49.0559 61.9525C49.042 60.7733 49.8522 59.4566 50.2523 58.3564C50.6361 57.3012 50.8625 56.2093 51.2675 55.1567C52.0073 53.234 53.9827 51.7034 54.4025 49.7041" stroke="#CCCCCC" stroke-width="1.58242" stroke-linecap="round"/>
<path d="M48.6641 62.6292C49.6596 62.4715 50.7844 63.3127 51.6522 63.684C52.5396 64.0637 53.5618 63.7719 54.3635 64.2883C55.6502 65.1169 60.8941 67.82 61.7806 65.2428C62.5224 63.0863 62.8549 60.4503 64.2834 58.5291C64.8138 57.8158 65.0228 56.7488 65.7515 56.2094C66.4566 55.6874 66.4035 54.7575 66.9767 54.112" stroke="#CCCCCC" stroke-width="1.58242" stroke-linecap="round"/>
<path d="M39.5961 70.8652C39.253 71.0352 39.2494 71.4746 39.1144 71.7308C38.9345 72.0724 38.8704 72.3182 38.7661 72.671C38.5787 73.3055 38.3144 74.0479 38.0054 74.662C37.6965 75.276 37.4833 75.93 37.1772 76.5534C37.0167 76.8801 37.5255 77.3 37.1616 77.5587" stroke="#CCCCCC" stroke-width="1.58242" stroke-linecap="round"/>
<path d="M53.3848 44.3512C53.8859 44.1174 54.2057 43.2107 54.5199 42.7969C54.8736 42.3308 55.1543 41.8863 55.5876 41.5061C56.1221 41.0369 56.6303 40.5454 57.1824 40.0906C57.6482 39.7068 58.1975 39.4825 58.6278 39.0421" stroke="#CCCCCC" stroke-width="1.58242" stroke-linecap="round"/>
</svg>
