<svg width="29" height="24" viewBox="0 0 29 24" fill="none" xmlns="http://www.w3.org/2000/svg">
<path d="M14.1098 24C13.7366 24.0009 13.3668 23.928 13.0218 23.7855C12.6768 23.6429 12.3634 23.4336 12.0996 23.1695L2.379 13.4488C1.61111 12.6726 1.00536 11.7513 0.597053 10.7386C0.188746 9.72598 -0.0139597 8.64218 0.000746531 7.5504C0.00814528 6.54987 0.212863 5.56063 0.603173 4.63935C0.993484 3.71806 1.56172 2.88283 2.27533 2.18149C2.98894 1.48015 3.8339 0.926495 4.76182 0.552224C5.68974 0.177954 6.68238 -0.00957252 7.68289 0.000385903C8.7013 -0.00987252 9.71141 0.184489 10.6533 0.571944C11.5952 0.959399 12.4497 1.53206 13.1661 2.25595L14.1098 3.1997L14.8837 2.42583C16.22 1.05415 18.0081 0.213214 19.9168 0.05878C21.8255 -0.095654 23.7256 0.446878 25.265 1.58589C26.1413 2.26072 26.8637 3.1145 27.3843 4.09038C27.9048 5.06626 28.2114 6.14184 28.2837 7.24549C28.3561 8.34914 28.1924 9.45554 27.8037 10.491C27.415 11.5265 26.8101 12.4672 26.0294 13.2507L16.12 23.1695C15.8562 23.4336 15.5428 23.6429 15.1979 23.7855C14.8529 23.928 14.4831 24.0009 14.1098 24ZM7.64514 1.87845C6.14506 1.87692 4.70324 2.45907 3.62475 3.5017C3.07492 4.03072 2.63767 4.6654 2.33927 5.36763C2.04086 6.06986 1.88745 6.82515 1.88825 7.58815C1.87998 8.42744 2.03839 9.26003 2.35429 10.0376C2.6702 10.8153 3.13731 11.5224 3.72857 12.1182L13.4492 21.8388C13.5369 21.9273 13.6413 21.9975 13.7563 22.0454C13.8713 22.0933 13.9947 22.118 14.1193 22.118C14.2439 22.118 14.3672 22.0933 14.4822 22.0454C14.5972 21.9975 14.7016 21.9273 14.7893 21.8388L24.7082 11.9105C25.2904 11.316 25.7402 10.605 26.0281 9.82427C26.316 9.04353 26.4355 8.21071 26.3786 7.38052C26.3282 6.54183 26.0972 5.72392 25.7014 4.98278C25.3056 4.24164 24.7543 3.59478 24.0853 3.08645C22.9114 2.22093 21.4629 1.81169 20.0096 1.93496C18.5563 2.05824 17.1974 2.70563 16.1861 3.75652L14.7799 5.20046C14.6922 5.28891 14.5878 5.35912 14.4728 5.40704C14.3578 5.45495 14.2344 5.47962 14.1098 5.47962C13.9852 5.47962 13.8619 5.45495 13.7469 5.40704C13.6319 5.35912 13.5275 5.28891 13.4398 5.20046L11.8354 3.59608C10.7304 2.50065 9.23886 1.88371 7.68289 1.87845H7.64514Z" fill="#2ADBAD"/>
</svg>
