<svg width="50" height="50" viewBox="0 0 50 50" fill="none" xmlns="http://www.w3.org/2000/svg">
<rect width="50" height="50" rx="25" fill="#FFB6D9"/>
<path d="M19.3926 12.1445C20.1366 12.9086 20.3285 14.0042 20.6886 14.9495" stroke="#D67BFF" stroke-width="1.93934" stroke-linecap="round"/>
<path d="M28.4824 11.2656C28.7916 11.5497 28.9475 12.3204 29.0306 12.7377C29.0827 12.9993 29.0661 13.3223 29.0855 13.5952C29.1085 13.9195 29.3233 14.0834 29.2889 14.4277" stroke="#D67BFF" stroke-width="1.93934" stroke-linecap="round"/>
<path d="M23.9518 19.9353C24.365 19.6403 25.0295 19.6025 25.5166 19.4732C25.9839 19.3492 26.4253 19.1605 26.8968 19.0445C27.7581 18.8328 28.7849 19.1541 29.5945 18.8105" stroke="#D67BFF" stroke-width="1.93934" stroke-linecap="round"/>
<path d="M23.6191 19.963C23.9197 20.2759 23.8993 20.8803 23.9816 21.2782C24.0658 21.6852 24.4204 21.9745 24.4353 22.3847C24.4591 23.0432 24.7944 25.5609 25.923 25.2399C26.8674 24.9714 27.8804 24.4403 28.9107 24.4722C29.2932 24.4841 29.7216 24.2954 30.0914 24.4201C30.4493 24.5408 30.7647 24.2932 31.1338 24.3369" stroke="#D67BFF" stroke-width="1.93934" stroke-linecap="round"/>
<path d="M17.6953 18.1107C17.5539 18.0259 17.3939 18.1269 17.2697 18.1376C17.1041 18.1519 17.0002 18.1858 16.8481 18.2301C16.5746 18.3099 16.2442 18.3868 15.9499 18.4178C15.6556 18.4487 15.3691 18.5237 15.0721 18.5578C14.9164 18.5757 14.8826 18.8577 14.7043 18.7861" stroke="#D67BFF" stroke-opacity="0.5" stroke-width="1.93934" stroke-linecap="round"/>
<path d="M33.7044 17.1355C33.9057 17.2627 34.3085 17.1676 34.5315 17.1851C34.7826 17.2049 35.009 17.2031 35.2475 17.2716C35.5418 17.3561 35.8381 17.4258 36.1313 17.52C36.3787 17.5994 36.5877 17.7462 36.8474 17.7996" stroke="#D67BFF" stroke-opacity="0.5" stroke-width="1.93934" stroke-linecap="round"/>
</svg>
