<svg width="50" height="25" viewBox="0 0 50 25" fill="none" xmlns="http://www.w3.org/2000/svg">
<path d="M23.97 23.56H0V18.9H9.74V14.95H14.51V18.9H24.52L23.97 23.56ZM22.44 6.84H14.42C14.34 7.58 14.2 8.29 13.98 8.94C14.55 8.89 15.07 8.86 15.54 8.86C19.74 8.86 23.23 10.52 23.23 12.95C23.23 15 21.38 15.81 17.91 15.81C17.61 13.74 16.06 12.18 12.67 11.34C10.68 13.96 7.16 15.35 2.28 15.54L0.97 10.82C6.18 10.6 8.8 9.24 9.53 6.84H1.61V2.18H9.74V0.55L14.51 0V2.18H22.99L22.44 6.84Z" fill="#2ADBAD"/>
<path d="M26.5195 12.9808V0.820781H40.1795L39.6395 5.48078H31.2995V8.29078H32.2495C35.1895 8.29078 37.8895 8.10078 40.4895 7.31078L41.4195 11.8408C38.4995 12.7908 35.6095 12.9808 32.2595 12.9808H26.5195ZM26.7995 19.2508C26.7995 15.6808 29.9895 14.1208 38.1695 14.1208C46.3495 14.1208 49.5395 15.6708 49.5395 19.2508C49.5395 22.8208 46.3495 24.3808 38.1695 24.3808C29.9895 24.3808 26.7995 22.8208 26.7995 19.2508ZM44.7695 19.2508C44.7695 18.4908 43.5995 18.2408 38.1695 18.2408C32.7395 18.2408 31.5695 18.4908 31.5695 19.2508C31.5695 20.0108 32.7395 20.2608 38.1695 20.2608C43.5995 20.2608 44.7695 20.0208 44.7695 19.2508ZM44.0895 13.5308V0.550781H48.8595V13.5308H44.0895Z" fill="#2ADBAD"/>
</svg>
