<svg width="25" height="24" viewBox="0 0 25 24" fill="none" xmlns="http://www.w3.org/2000/svg">
<path d="M6.65865 5.47737C7.493 4.06079 7.01698 2.26024 5.59542 1.45572C4.17386 0.651211 2.34509 1.14739 1.51073 2.56397C0.676377 3.98054 1.1524 5.78109 2.57396 6.58561C3.99552 7.39012 5.82429 6.89394 6.65865 5.47737Z" stroke="#777777" stroke-width="1.23341" stroke-linecap="round" stroke-linejoin="round"/>
<path d="M6.65865 21.4344C7.49301 20.0178 7.01698 18.2173 5.59543 17.4128C4.17387 16.6082 2.34509 17.1044 1.51073 18.521C0.676379 19.9376 1.1524 21.7381 2.57396 22.5426C3.99552 23.3472 5.8243 22.851 6.65865 21.4344Z" stroke="#777777" stroke-width="1.23341" stroke-linecap="round" stroke-linejoin="round"/>
<path d="M22.5297 13.4559C23.3641 12.0393 22.8881 10.2388 21.4665 9.43424C20.045 8.62972 18.2162 9.1259 17.3818 10.5425C16.5475 11.9591 17.0235 13.7596 18.4451 14.5641C19.8666 15.3686 21.6954 14.8725 22.5297 13.4559Z" stroke="#777777" stroke-width="1.23341" stroke-linecap="round" stroke-linejoin="round"/>
<path d="M7.25977 5.61523L16.774 10.3982" stroke="#777777" stroke-width="1.23332" stroke-linecap="round" stroke-linejoin="round"/>
<path d="M6.75977 18.6346L17.2803 13.3457" stroke="#777777" stroke-width="1.23332" stroke-linecap="round" stroke-linejoin="round"/>
</svg>
